<?xml version="1.0" encoding="UTF-8"?>
<!DOCTYPE svg PUBLIC "-//W3C//DTD SVG 1.1//EN" "http://www.w3.org/Graphics/SVG/1.1/DTD/svg11.dtd">
<!-- Creator: CorelDRAW -->
<svg xmlns="http://www.w3.org/2000/svg" xml:space="preserve" width="2048px" height="2048px" style="shape-rendering:geometricPrecision; text-rendering:geometricPrecision; image-rendering:optimizeQuality; fill-rule:evenodd; clip-rule:evenodd"
viewBox="0 0 2048 2048"
 xmlns:xlink="http://www.w3.org/1999/xlink">
 <defs>
  <style type="text/css">
   <![CDATA[
    .fil2 {fill:none}
    .fil4 {fill:#EC407A}
    .fil3 {fill:#F06292}
    .fil1 {fill:#FFB300}
    .fil0 {fill:#FFD54F}
    .fil5 {fill:#FFF3E0}
    .fil6 {fill:#424242;fill-rule:nonzero}
   ]]>
  </style>
   <clipPath id="id0">
    <path d="M1024 -0.0011811c565.539,0 1024,458.462 1024,1024 0,565.539 -458.462,1024 -1024,1024 -565.539,0 -1024,-458.462 -1024,-1024 0,-565.539 458.462,-1024 1024,-1024z"/>
   </clipPath>
 </defs>
 <g id="Layer_x0020_1">
  <metadata id="CorelCorpID_0Corel-Layer"/>
  <path class="fil0" d="M1024 -0.0011811c565.539,0 1024,458.462 1024,1024 0,565.539 -458.462,1024 -1024,1024 -565.539,0 -1024,-458.462 -1024,-1024 0,-565.539 458.462,-1024 1024,-1024z"/>
  <g style="clip-path:url(#id0)">
   <g id="_466498808">
    <g>
     <polygon id="_3968054081" class="fil1" points="1476.97,475.158 2612.85,1611.04 2614.62,1613.4 2616.15,1615.93 2617.45,1618.61 2618.48,1621.43 2619.23,1624.37 2619.7,1627.41 2619.86,1630.54 1483.97,494.663 1483.82,491.528 1483.35,488.483 1482.6,485.544 1481.57,482.728 1480.27,480.046 1478.74,477.519 "/>
     <polygon id="_396819568" class="fil1" points="616.369,472.981 1752.25,1608.86 1754.23,1611.04 1755.99,1613.4 1757.53,1615.93 1758.82,1618.61 1759.85,1621.43 1760.61,1624.37 1761.07,1627.41 1761.23,1630.54 625.35,494.663 625.192,491.528 624.728,488.483 623.972,485.544 622.941,482.728 621.649,480.046 620.113,477.519 618.348,475.158 "/>
     <polygon id="_396824176" class="fil1" points="1575.92,1584 2711.8,2719.88 1607.96,2719.88 472.076,1584 "/>
     <polygon id="_396798112" class="fil1" points="625.35,494.663 1761.23,1630.54 1761.23,1677.36 625.35,541.479 "/>
     <polygon id="_396818152" class="fil1" points="831.024,472.981 1966.91,1608.86 1968.88,1611.04 1970.65,1613.4 1972.19,1615.93 1973.48,1618.61 1974.51,1621.43 1975.26,1624.37 1975.73,1627.41 1975.89,1630.54 840.005,494.663 839.847,491.528 839.383,488.483 838.627,485.544 837.596,482.728 836.305,480.046 834.768,477.519 833.004,475.158 "/>
     <polygon id="_396817648" class="fil1" points="840.005,494.663 1975.89,1630.54 1975.89,1677.36 840.005,541.479 "/>
     <polygon id="_396816136" class="fil1" points="1047.66,475.158 2183.54,1611.04 2185.31,1613.4 2186.84,1615.93 2188.13,1618.61 2189.17,1621.43 2189.92,1624.37 2190.39,1627.41 2190.54,1630.54 1054.66,494.663 1054.5,491.528 1054.04,488.483 1053.28,485.544 1052.25,482.728 1050.96,480.046 1049.43,477.519 "/>
     <polygon id="_396808384" class="fil1" points="1054.66,494.663 2190.54,1630.54 2190.54,1677.36 1054.66,541.479 "/>
     <polygon id="_396812128" class="fil1" points="1262.31,475.158 2398.2,1611.04 2399.96,1613.4 2401.5,1615.93 2402.79,1618.61 2403.82,1621.43 2404.58,1624.37 2405.04,1627.41 2405.2,1630.54 1269.32,494.663 1269.16,491.528 1268.7,488.483 1267.94,485.544 1266.91,482.728 1265.62,480.046 1264.08,477.519 "/>
     <polygon id="_396806080" class="fil1" points="1269.32,494.663 2405.2,1630.54 2405.2,1677.36 1269.32,541.479 "/>
     <polygon id="_396797992" class="fil1" points="1575.92,786.779 2711.8,1922.66 2711.8,2719.88 1575.92,1584 "/>
     <polygon id="_396823120" class="fil1" points="1483.97,494.663 2619.86,1630.54 2619.86,1677.36 1483.97,541.479 "/>
     <polygon id="_396822736" class="fil1" points="1575.92,541.479 2711.8,1677.36 2711.8,1922.66 1575.92,786.779 "/>
    </g>
    <path id="_466493216" class="fil1" d="M1575.92 541.479l0 245.3 0 797.221 -1103.85 0 0 -797.219 0 -245.302 91.9477 0 0 -46.8166c0,-16.9347 13.7291,-30.6626 30.6626,-30.6626 16.9347,0 30.6638,13.728 30.6638,30.6626l0 46.8166 153.33 0 0 -46.8166c0,-16.9347 13.7291,-30.6626 30.6626,-30.6626 16.9347,0 30.6626,13.728 30.6626,30.6626l0 46.8166 153.331 0 0 -46.8166c0,-16.9347 13.7291,-30.6626 30.6626,-30.6626 16.9347,0 30.6638,13.728 30.6638,30.6626l0 46.8166 153.328 0 0 -46.8166c0,-16.9347 13.7291,-30.6626 30.6638,-30.6626 16.9335,0 30.6626,13.728 30.6626,30.6626l0 46.8166 153.331 0 0 -46.8166c0,-16.9347 13.7291,-30.6626 30.6638,-30.6626 16.9335,0 30.6626,13.728 30.6626,30.6626l0 46.8166 91.9489 0z"/>
   </g>
  </g>
  <path class="fil2" d="M1024 -0.0011811c565.539,0 1024,458.462 1024,1024 0,565.539 -458.462,1024 -1024,1024 -565.539,0 -1024,-458.462 -1024,-1024 0,-565.539 458.462,-1024 1024,-1024z"/>
  <polygon class="fil3" points="1575.92,786.78 1575.92,1584 472.076,1584 472.076,786.78 "/>
  <path class="fil4" d="M472.076 541.48c367.949,0 735.898,0 1103.85,0l0 245.301 -1103.85 0 0 -245.301z"/>
  <path class="fil5" d="M1059.04 1431.04c-0.217323,-2.24055 -0.445276,-4.57441 -0.557481,-7.14449 -0.113386,-2.67402 -0.113386,-6.58465 -0.113386,-11.8299 0,-32.8996 7.14331,-63.8056 21.5327,-92.8135 14.3906,-28.9984 36.4819,-56.7768 66.3768,-83.328 5.68819,-5.01733 13.8331,-12.3874 24.5386,-21.9768 34.024,-30.0095 56.5595,-51.43 67.7174,-64.3642 9.14764,-10.6028 15.7323,-22.8756 19.8626,-36.5953 4.11969,-13.7197 6.24449,-30.0083 6.24449,-48.9721 0,-28.9984 -6.47245,-51.2032 -19.304,-66.7075 -12.8303,-15.5043 -31.1233,-23.2063 -54.8871,-23.2063 -24.424,0 -42.7264,8.58898 -54.7737,25.7669 -12.1595,17.2914 -18.1784,43.2851 -18.1784,78.2068 0,0 0.113386,1.78583 0.330709,5.46024 0.225591,3.79961 0.340158,7.47402 0.340158,11.1591l-54.2162 0c0,-2.0126 -0.113386,-4.91221 -0.341339,-9.0319 -0.217323,-4.01575 -0.330709,-7.03111 -0.330709,-8.92914 0,-48.8587 11.263,-86.4544 33.7985,-112.892 22.5355,-26.4378 54.5563,-39.7134 95.941,-39.7134 40.715,0 72.5091,12.0473 95.3753,36.1418 22.8756,24.0933 34.3654,57.6745 34.3654,100.845 0,21.978 -2.2311,41.2819 -6.7004,58.0146 -4.45866,16.6205 -11.5937,32.126 -21.4099,46.5166 -9.81733,15.2776 -31.6819,36.5835 -65.706,64.0335 -8.48505,6.80197 -14.948,12.0473 -19.3028,15.7323 -34.1386,28.3252 -58.3453,52.7599 -72.3957,73.1788 -14.0599,20.5229 -21.3083,40.8284 -21.978,61.1327l211.734 0 0 51.6461 -267.963 -0.329528z"/>
  <path class="fil5" d="M721.671 1431.04c-0.217323,-2.24055 -0.444095,-4.57441 -0.557481,-7.14449 -0.113386,-2.67402 -0.113386,-6.58465 -0.113386,-11.8299 0,-32.8996 7.14331,-63.8056 21.5339,-92.8135 14.3894,-28.9984 36.4807,-56.7768 66.3756,-83.328 5.68819,-5.01733 13.8331,-12.3874 24.5386,-21.9768 34.0252,-30.0095 56.5595,-51.43 67.7186,-64.3642 9.14646,-10.6028 15.7323,-22.8756 19.8614,-36.5953 4.11969,-13.7197 6.24567,-30.0083 6.24567,-48.9721 0,-28.9984 -6.47245,-51.2032 -19.304,-66.7075 -12.8315,-15.5043 -31.1233,-23.2063 -54.8871,-23.2063 -24.424,0 -42.7264,8.58898 -54.7737,25.7669 -12.1606,17.2914 -18.1795,43.2851 -18.1795,78.2068 0,0 0.113386,1.78583 0.330709,5.46024 0.227953,3.79961 0.340158,7.47402 0.340158,11.1591l-54.2162 0c0,-2.0126 -0.113386,-4.91221 -0.340158,-9.0319 -0.217323,-4.01575 -0.330709,-7.03111 -0.330709,-8.92914 0,-48.8587 11.263,-86.4544 33.7973,-112.892 22.5355,-26.4378 54.5563,-39.7134 95.9422,-39.7134 40.7138,0 72.5091,12.0473 95.3741,36.1418 22.8756,24.0933 34.3654,57.6745 34.3654,100.845 0,21.978 -2.22992,41.2819 -6.69922,58.0146 -4.45985,16.6205 -11.5925,32.126 -21.411,46.5166 -9.81615,15.2776 -31.6819,36.5835 -65.706,64.0335 -8.48505,6.80197 -14.9469,12.0473 -19.3028,15.7323 -34.1386,28.3252 -58.3453,52.7599 -72.3957,73.1788 -14.0599,20.5229 -21.3071,40.8284 -21.9768,61.1327l211.733 0 0 51.6461 -267.963 -0.329528z"/>
  <path class="fil6" d="M625.35 494.663c0,-16.9347 -13.7291,-30.6638 -30.6638,-30.6638 -16.9335,0 -30.6626,13.7291 -30.6626,30.6638l0 126.415c0,16.9335 13.7291,30.6626 30.6626,30.6626 16.9347,0 30.6638,-13.7291 30.6638,-30.6626l0 -126.415zm643.967 0c0,-16.9347 -13.7291,-30.6638 -30.6626,-30.6638 -16.9347,0 -30.6638,13.7291 -30.6638,30.6638l0 126.415c0,16.9335 13.7291,30.6626 30.6638,30.6626 16.9335,0 30.6626,-13.7291 30.6626,-30.6626l0 -126.415zm-214.655 0c0,-16.9347 -13.7291,-30.6638 -30.6638,-30.6638 -16.9347,0 -30.6626,13.7291 -30.6626,30.6638l0 126.415c0,16.9335 13.728,30.6626 30.6626,30.6626 16.9347,0 30.6638,-13.7291 30.6638,-30.6626l0 -126.415zm-214.656 0c0,-16.9347 -13.7291,-30.6638 -30.6638,-30.6638 -16.9335,0 -30.6626,13.7291 -30.6626,30.6638l0 126.415c0,16.9335 13.7291,30.6626 30.6626,30.6626 16.9347,0 30.6638,-13.7291 30.6638,-30.6626l0 -126.415zm643.968 0c0,-16.9347 -13.7291,-30.6638 -30.6626,-30.6638 -16.9347,0 -30.6638,13.7291 -30.6638,30.6638l0 126.415c0,16.9335 13.7291,30.6626 30.6638,30.6626 16.9335,0 30.6626,-13.7291 30.6626,-30.6626l0 -126.415z"/>
 </g>
</svg>
